<svg width="360" height="205" viewBox="0 0 360 205" fill="none" xmlns="http://www.w3.org/2000/svg">
<rect x="-2.12451" y="18.4591" width="361.829" height="186.253"/>
<path d="M99.0967 21.5243C99.3907 21.6177 99.6194 21.7693 99.7827 21.9793C99.9507 22.1847 100.035 22.4273 100.035 22.7073C100.035 23.0013 99.9391 23.258 99.7477 23.4773C99.5564 23.692 99.2997 23.8577 98.9777 23.9743C98.6604 24.091 98.3127 24.1493 97.9347 24.1493C97.6081 24.1493 97.2791 24.105 96.9477 24.0163C96.6211 23.923 96.3177 23.7853 96.0377 23.6033L96.3317 22.9383C96.5464 23.083 96.7844 23.195 97.0457 23.2743C97.3071 23.349 97.5661 23.3863 97.8227 23.3863C98.1914 23.3863 98.4971 23.314 98.7397 23.1693C98.9871 23.0247 99.1107 22.8263 99.1107 22.5743C99.1107 22.3597 99.0221 22.1963 98.8447 22.0843C98.6674 21.9723 98.4224 21.9163 98.1097 21.9163H96.9687V21.2023H98.0397C98.3104 21.2023 98.5227 21.1463 98.6767 21.0343C98.8307 20.9223 98.9077 20.7707 98.9077 20.5793C98.9077 20.3507 98.8027 20.1733 98.5927 20.0473C98.3874 19.9213 98.1237 19.8583 97.8017 19.8583C97.5824 19.8583 97.3561 19.891 97.1227 19.9563C96.8894 20.017 96.6701 20.108 96.4647 20.2293L96.1777 19.4943C96.4297 19.359 96.6957 19.2587 96.9757 19.1933C97.2604 19.1233 97.5427 19.0883 97.8227 19.0883C98.1867 19.0883 98.5204 19.1443 98.8237 19.2563C99.1317 19.3683 99.3767 19.5293 99.5587 19.7393C99.7407 19.9447 99.8317 20.1873 99.8317 20.4673C99.8317 20.71 99.7664 20.9223 99.6357 21.1043C99.5051 21.2863 99.3254 21.4263 99.0967 21.5243ZM102.362 20.2993C102.912 20.2993 103.332 20.4323 103.622 20.6983C103.916 20.9597 104.063 21.3563 104.063 21.8883V24.0793H103.237V23.6243C103.129 23.7877 102.975 23.9137 102.775 24.0023C102.579 24.0863 102.341 24.1283 102.061 24.1283C101.781 24.1283 101.536 24.0817 101.326 23.9883C101.116 23.8903 100.952 23.7573 100.836 23.5893C100.724 23.4167 100.668 23.223 100.668 23.0083C100.668 22.6723 100.791 22.404 101.039 22.2033C101.291 21.998 101.685 21.8953 102.222 21.8953H103.188V21.8393C103.188 21.578 103.108 21.3773 102.95 21.2373C102.796 21.0973 102.565 21.0273 102.257 21.0273C102.047 21.0273 101.839 21.06 101.634 21.1253C101.433 21.1907 101.263 21.2817 101.123 21.3983L100.78 20.7613C100.976 20.612 101.211 20.4977 101.487 20.4183C101.762 20.339 102.054 20.2993 102.362 20.2993ZM102.243 23.4913C102.462 23.4913 102.656 23.4423 102.824 23.3443C102.996 23.2417 103.118 23.097 103.188 22.9103V22.4763H102.285C101.781 22.4763 101.529 22.642 101.529 22.9733C101.529 23.132 101.592 23.258 101.718 23.3513C101.844 23.4447 102.019 23.4913 102.243 23.4913ZM110.654 20.3413V24.0793H105.145V20.3413H106.02V23.3373H107.469V20.3413H108.344V23.3373H109.779V20.3413H110.654ZM111.193 23.3373V24.8493H110.374V24.0793H109.751V23.3373H111.193ZM111.831 20.3413H112.706V22.8053L114.771 20.3413H115.569V24.0793H114.694V21.6153L112.636 24.0793H111.831V20.3413ZM119.707 21.0833H118.398V24.0793H117.523V21.0833H116.207V20.3413H119.707V21.0833ZM121.735 20.2993C122.285 20.2993 122.705 20.4323 122.995 20.6983C123.289 20.9597 123.436 21.3563 123.436 21.8883V24.0793H122.61V23.6243C122.502 23.7877 122.348 23.9137 122.148 24.0023C121.952 24.0863 121.714 24.1283 121.434 24.1283C121.154 24.1283 120.909 24.0817 120.699 23.9883C120.489 23.8903 120.325 23.7573 120.209 23.5893C120.097 23.4167 120.041 23.223 120.041 23.0083C120.041 22.6723 120.164 22.404 120.412 22.2033C120.664 21.998 121.058 21.8953 121.595 21.8953H122.561V21.8393C122.561 21.578 122.481 21.3773 122.323 21.2373C122.169 21.0973 121.938 21.0273 121.63 21.0273C121.42 21.0273 121.212 21.06 121.007 21.1253C120.806 21.1907 120.636 21.2817 120.496 21.3983L120.153 20.7613C120.349 20.612 120.584 20.4977 120.86 20.4183C121.135 20.339 121.427 20.2993 121.735 20.2993ZM121.616 23.4913C121.835 23.4913 122.029 23.4423 122.197 23.3443C122.369 23.2417 122.491 23.097 122.561 22.9103V22.4763H121.658C121.154 22.4763 120.902 22.642 120.902 22.9733C120.902 23.132 120.965 23.258 121.091 23.3513C121.217 23.4447 121.392 23.4913 121.616 23.4913ZM128.119 24.1283C127.741 24.1283 127.4 24.0467 127.097 23.8833C126.794 23.72 126.556 23.4937 126.383 23.2043C126.215 22.9103 126.131 22.579 126.131 22.2103C126.131 21.8417 126.215 21.5127 126.383 21.2233C126.556 20.934 126.794 20.7077 127.097 20.5443C127.4 20.381 127.741 20.2993 128.119 20.2993C128.502 20.2993 128.845 20.381 129.148 20.5443C129.451 20.7077 129.687 20.934 129.855 21.2233C130.028 21.5127 130.114 21.8417 130.114 22.2103C130.114 22.579 130.028 22.9103 129.855 23.2043C129.687 23.4937 129.451 23.72 129.148 23.8833C128.845 24.0467 128.502 24.1283 128.119 24.1283ZM128.119 23.3793C128.441 23.3793 128.707 23.272 128.917 23.0573C129.127 22.8427 129.232 22.5603 129.232 22.2103C129.232 21.8603 129.127 21.578 128.917 21.3633C128.707 21.1487 128.441 21.0413 128.119 21.0413C127.797 21.0413 127.531 21.1487 127.321 21.3633C127.116 21.578 127.013 21.8603 127.013 22.2103C127.013 22.5603 127.116 22.8427 127.321 23.0573C127.531 23.272 127.797 23.3793 128.119 23.3793ZM133.803 21.0833H132.494V24.0793H131.619V21.0833H130.303V20.3413H133.803V21.0833ZM99.9507 26.3413L98.2007 30.3803C98.0374 30.7863 97.8391 31.071 97.6057 31.2343C97.3724 31.4023 97.0901 31.4863 96.7587 31.4863C96.5721 31.4863 96.3877 31.456 96.2057 31.3953C96.0237 31.3347 95.8744 31.2507 95.7577 31.1433L96.1077 30.4993C96.1917 30.5787 96.2897 30.6417 96.4017 30.6883C96.5184 30.735 96.6351 30.7583 96.7517 30.7583C96.9057 30.7583 97.0317 30.7187 97.1297 30.6393C97.2324 30.56 97.3257 30.427 97.4097 30.2403L97.4727 30.0933L95.8417 26.3413H96.7517L97.9277 29.1063L99.1107 26.3413H99.9507ZM104.316 29.3373V30.9123H103.497V30.0793H100.613V30.9123H99.801V29.3373H99.976C100.214 29.328 100.375 29.1763 100.459 28.8823C100.548 28.5837 100.606 28.1637 100.634 27.6223L100.683 26.3413H103.763V29.3373H104.316ZM101.432 27.6853C101.413 28.1147 101.378 28.4647 101.327 28.7353C101.276 29.006 101.182 29.2067 101.047 29.3373H102.888V27.0833H101.453L101.432 27.6853ZM106.491 26.2993C107.041 26.2993 107.461 26.4323 107.751 26.6983C108.045 26.9597 108.192 27.3563 108.192 27.8883V30.0793H107.366V29.6243C107.258 29.7877 107.104 29.9137 106.904 30.0023C106.708 30.0863 106.47 30.1283 106.19 30.1283C105.91 30.1283 105.665 30.0817 105.455 29.9883C105.245 29.8903 105.081 29.7573 104.965 29.5893C104.853 29.4167 104.797 29.223 104.797 29.0083C104.797 28.6723 104.92 28.404 105.168 28.2033C105.42 27.998 105.814 27.8953 106.351 27.8953H107.317V27.8393C107.317 27.578 107.237 27.3773 107.079 27.2373C106.925 27.0973 106.694 27.0273 106.386 27.0273C106.176 27.0273 105.968 27.06 105.763 27.1253C105.562 27.1907 105.392 27.2817 105.252 27.3983L104.909 26.7613C105.105 26.612 105.34 26.4977 105.616 26.4183C105.891 26.339 106.183 26.2993 106.491 26.2993ZM106.372 29.4913C106.591 29.4913 106.785 29.4423 106.953 29.3443C107.125 29.2417 107.247 29.097 107.317 28.9103V28.4763H106.414C105.91 28.4763 105.658 28.642 105.658 28.9733C105.658 29.132 105.721 29.258 105.847 29.3513C105.973 29.4447 106.148 29.4913 106.372 29.4913ZM111.346 26.2993C111.71 26.2993 112.035 26.3787 112.319 26.5373C112.609 26.696 112.835 26.92 112.998 27.2093C113.162 27.4987 113.243 27.8323 113.243 28.2103C113.243 28.5883 113.162 28.9243 112.998 29.2183C112.835 29.5077 112.609 29.7317 112.319 29.8903C112.035 30.049 111.71 30.1283 111.346 30.1283C110.842 30.1283 110.443 29.9603 110.149 29.6243V31.4373H109.274V26.3413H110.107V26.8313C110.252 26.654 110.429 26.521 110.639 26.4323C110.854 26.3437 111.09 26.2993 111.346 26.2993ZM111.248 29.3793C111.57 29.3793 111.834 29.272 112.039 29.0573C112.249 28.8427 112.354 28.5603 112.354 28.2103C112.354 27.8603 112.249 27.578 112.039 27.3633C111.834 27.1487 111.57 27.0413 111.248 27.0413C111.038 27.0413 110.849 27.0903 110.681 27.1883C110.513 27.2817 110.38 27.417 110.282 27.5943C110.184 27.7717 110.135 27.977 110.135 28.2103C110.135 28.4437 110.184 28.649 110.282 28.8263C110.38 29.0037 110.513 29.1413 110.681 29.2393C110.849 29.3327 111.038 29.3793 111.248 29.3793ZM115.459 26.2993C116.01 26.2993 116.43 26.4323 116.719 26.6983C117.013 26.9597 117.16 27.3563 117.16 27.8883V30.0793H116.334V29.6243C116.227 29.7877 116.073 29.9137 115.872 30.0023C115.676 30.0863 115.438 30.1283 115.158 30.1283C114.878 30.1283 114.633 30.0817 114.423 29.9883C114.213 29.8903 114.05 29.7573 113.933 29.5893C113.821 29.4167 113.765 29.223 113.765 29.0083C113.765 28.6723 113.889 28.404 114.136 28.2033C114.388 27.998 114.783 27.8953 115.319 27.8953H116.285V27.8393C116.285 27.578 116.206 27.3773 116.047 27.2373C115.893 27.0973 115.662 27.0273 115.354 27.0273C115.144 27.0273 114.937 27.06 114.731 27.1253C114.531 27.1907 114.36 27.2817 114.22 27.3983L113.877 26.7613C114.073 26.612 114.309 26.4977 114.584 26.4183C114.86 26.339 115.151 26.2993 115.459 26.2993ZM115.34 29.4913C115.56 29.4913 115.753 29.4423 115.921 29.3443C116.094 29.2417 116.215 29.097 116.285 28.9103V28.4763H115.382C114.878 28.4763 114.626 28.642 114.626 28.9733C114.626 29.132 114.689 29.258 114.815 29.3513C114.941 29.4447 115.116 29.4913 115.34 29.4913ZM121.879 30.1283C121.491 30.1283 121.144 30.0467 120.836 29.8833C120.528 29.72 120.287 29.4937 120.115 29.2043C119.942 28.9103 119.856 28.579 119.856 28.2103C119.856 27.8417 119.942 27.5127 120.115 27.2233C120.287 26.934 120.525 26.7077 120.829 26.5443C121.137 26.381 121.487 26.2993 121.879 26.2993C122.247 26.2993 122.569 26.374 122.845 26.5233C123.125 26.6727 123.335 26.8873 123.475 27.1673L122.803 27.5593C122.695 27.3867 122.56 27.2583 122.397 27.1743C122.238 27.0857 122.063 27.0413 121.872 27.0413C121.545 27.0413 121.274 27.1487 121.06 27.3633C120.845 27.5733 120.738 27.8557 120.738 28.2103C120.738 28.565 120.843 28.8497 121.053 29.0643C121.267 29.2743 121.54 29.3793 121.872 29.3793C122.063 29.3793 122.238 29.3373 122.397 29.2533C122.56 29.1647 122.695 29.034 122.803 28.8613L123.475 29.2533C123.33 29.5333 123.118 29.7503 122.838 29.9043C122.562 30.0537 122.243 30.1283 121.879 30.1283ZM127.829 26.3413V30.0793H126.961V27.0833H125.12V30.0793H124.245V26.3413H127.829ZM132.51 28.2313C132.51 28.292 132.505 28.3783 132.496 28.4903H129.563C129.614 28.7657 129.747 28.985 129.962 29.1483C130.181 29.307 130.452 29.3863 130.774 29.3863C131.184 29.3863 131.523 29.251 131.789 28.9803L132.258 29.5193C132.09 29.72 131.877 29.8717 131.621 29.9743C131.364 30.077 131.075 30.1283 130.753 30.1283C130.342 30.1283 129.98 30.0467 129.668 29.8833C129.355 29.72 129.112 29.4937 128.94 29.2043C128.772 28.9103 128.688 28.579 128.688 28.2103C128.688 27.8463 128.769 27.5197 128.933 27.2303C129.101 26.9363 129.332 26.7077 129.626 26.5443C129.92 26.381 130.251 26.2993 130.62 26.2993C130.984 26.2993 131.308 26.381 131.593 26.5443C131.882 26.703 132.106 26.9293 132.265 27.2233C132.428 27.5127 132.51 27.8487 132.51 28.2313ZM130.62 26.9993C130.34 26.9993 130.102 27.0833 129.906 27.2513C129.714 27.4147 129.598 27.634 129.556 27.9093H131.677C131.639 27.6387 131.525 27.4193 131.334 27.2513C131.142 27.0833 130.904 26.9993 130.62 26.9993ZM135.539 26.2993C135.903 26.2993 136.227 26.3787 136.512 26.5373C136.801 26.696 137.027 26.92 137.191 27.2093C137.354 27.4987 137.436 27.8323 137.436 28.2103C137.436 28.5883 137.354 28.9243 137.191 29.2183C137.027 29.5077 136.801 29.7317 136.512 29.8903C136.227 30.049 135.903 30.1283 135.539 30.1283C135.035 30.1283 134.636 29.9603 134.342 29.6243V31.4373H133.467V26.3413H134.3V26.8313C134.444 26.654 134.622 26.521 134.832 26.4323C135.046 26.3437 135.282 26.2993 135.539 26.2993ZM135.441 29.3793C135.763 29.3793 136.026 29.272 136.232 29.0573C136.442 28.8427 136.547 28.5603 136.547 28.2103C136.547 27.8603 136.442 27.578 136.232 27.3633C136.026 27.1487 135.763 27.0413 135.441 27.0413C135.231 27.0413 135.042 27.0903 134.874 27.1883C134.706 27.2817 134.573 27.417 134.475 27.5943C134.377 27.7717 134.328 27.977 134.328 28.2103C134.328 28.4437 134.377 28.649 134.475 28.8263C134.573 29.0037 134.706 29.1413 134.874 29.2393C135.042 29.3327 135.231 29.3793 135.441 29.3793ZM141.807 28.2313C141.807 28.292 141.802 28.3783 141.793 28.4903H138.86C138.911 28.7657 139.044 28.985 139.259 29.1483C139.478 29.307 139.749 29.3863 140.071 29.3863C140.481 29.3863 140.82 29.251 141.086 28.9803L141.555 29.5193C141.387 29.72 141.174 29.8717 140.918 29.9743C140.661 30.077 140.372 30.1283 140.05 30.1283C139.639 30.1283 139.277 30.0467 138.965 29.8833C138.652 29.72 138.409 29.4937 138.237 29.2043C138.069 28.9103 137.985 28.579 137.985 28.2103C137.985 27.8463 138.066 27.5197 138.23 27.2303C138.398 26.9363 138.629 26.7077 138.923 26.5443C139.217 26.381 139.548 26.2993 139.917 26.2993C140.281 26.2993 140.605 26.381 140.89 26.5443C141.179 26.703 141.403 26.9293 141.562 27.2233C141.725 27.5127 141.807 27.8487 141.807 28.2313ZM139.917 26.9993C139.637 26.9993 139.399 27.0833 139.203 27.2513C139.011 27.4147 138.895 27.634 138.853 27.9093H140.974C140.936 27.6387 140.822 27.4193 140.631 27.2513C140.439 27.0833 140.201 26.9993 139.917 26.9993ZM146.706 29.3373V30.9123H145.887V30.0793H143.003V30.9123H142.191V29.3373H142.366C142.604 29.328 142.765 29.1763 142.849 28.8823C142.937 28.5837 142.996 28.1637 143.024 27.6223L143.073 26.3413H146.153V29.3373H146.706ZM143.822 27.6853C143.803 28.1147 143.768 28.4647 143.717 28.7353C143.665 29.006 143.572 29.2067 143.437 29.3373H145.278V27.0833H143.843L143.822 27.6853ZM147.487 26.3413H148.362V28.8053L150.427 26.3413H151.225V30.0793H150.35V27.6153L148.292 30.0793H147.487V26.3413Z" fill="black"/>
<rect x="90.6611" y="18.4591" width="1.37971" height="93.4715" fill="#E51937"/>
<path d="M93.265 112.965C93.265 114.022 92.4079 114.88 91.3505 114.88C90.2932 114.88 89.436 114.022 89.436 112.965C89.436 111.908 90.2932 111.051 91.3505 111.051C92.4079 111.051 93.265 111.908 93.265 112.965Z" fill="white" stroke="#E51937"/>
<path d="M193.952 4.96856C194.246 5.06189 194.475 5.21356 194.638 5.42356C194.806 5.62889 194.89 5.87156 194.89 6.15156C194.89 6.44556 194.794 6.70223 194.603 6.92156C194.412 7.13623 194.155 7.30189 193.833 7.41856C193.516 7.53523 193.168 7.59356 192.79 7.59356C192.463 7.59356 192.134 7.54923 191.803 7.46056C191.476 7.36723 191.173 7.22956 190.893 7.04756L191.187 6.38256C191.402 6.52723 191.64 6.63923 191.901 6.71856C192.162 6.79323 192.421 6.83056 192.678 6.83056C193.047 6.83056 193.352 6.75823 193.595 6.61356C193.842 6.46889 193.966 6.27056 193.966 6.01856C193.966 5.80389 193.877 5.64056 193.7 5.52856C193.523 5.41656 193.278 5.36056 192.965 5.36056H191.824V4.64656H192.895C193.166 4.64656 193.378 4.59056 193.532 4.47856C193.686 4.36656 193.763 4.21489 193.763 4.02356C193.763 3.79489 193.658 3.61756 193.448 3.49156C193.243 3.36556 192.979 3.30256 192.657 3.30256C192.438 3.30256 192.211 3.33523 191.978 3.40056C191.745 3.46123 191.525 3.55223 191.32 3.67356L191.033 2.93856C191.285 2.80323 191.551 2.70289 191.831 2.63756C192.116 2.56756 192.398 2.53256 192.678 2.53256C193.042 2.53256 193.376 2.58856 193.679 2.70056C193.987 2.81256 194.232 2.97356 194.414 3.18356C194.596 3.38889 194.687 3.63156 194.687 3.91156C194.687 4.15423 194.622 4.36656 194.491 4.54856C194.36 4.73056 194.181 4.87056 193.952 4.96856ZM197.217 3.74356C197.768 3.74356 198.188 3.87656 198.477 4.14256C198.771 4.40389 198.918 4.80056 198.918 5.33256V7.52356H198.092V7.06856C197.985 7.23189 197.831 7.35789 197.63 7.44656C197.434 7.53056 197.196 7.57256 196.916 7.57256C196.636 7.57256 196.391 7.52589 196.181 7.43256C195.971 7.33456 195.808 7.20156 195.691 7.03356C195.579 6.86089 195.523 6.66723 195.523 6.45256C195.523 6.11656 195.647 5.84823 195.894 5.64756C196.146 5.44223 196.54 5.33956 197.077 5.33956H198.043V5.28356C198.043 5.02223 197.964 4.82156 197.805 4.68156C197.651 4.54156 197.42 4.47156 197.112 4.47156C196.902 4.47156 196.694 4.50423 196.489 4.56956C196.288 4.63489 196.118 4.72589 195.978 4.84256L195.635 4.20556C195.831 4.05623 196.067 3.94189 196.342 3.86256C196.617 3.78323 196.909 3.74356 197.217 3.74356ZM197.098 6.93556C197.317 6.93556 197.511 6.88656 197.679 6.78856C197.852 6.68589 197.973 6.54123 198.043 6.35456V5.92056H197.14C196.636 5.92056 196.384 6.08623 196.384 6.41756C196.384 6.57623 196.447 6.70223 196.573 6.79556C196.699 6.88889 196.874 6.93556 197.098 6.93556ZM205.51 3.78556V7.52356H200.001V3.78556H200.876V6.78156H202.325V3.78556H203.2V6.78156H204.635V3.78556H205.51ZM206.049 6.78156V8.29356H205.23V7.52356H204.607V6.78156H206.049ZM206.686 3.78556H207.561V6.24956L209.626 3.78556H210.424V7.52356H209.549V5.05956L207.491 7.52356H206.686V3.78556ZM214.562 4.52756H213.253V7.52356H212.378V4.52756H211.062V3.78556H214.562V4.52756ZM216.59 3.74356C217.141 3.74356 217.561 3.87656 217.85 4.14256C218.144 4.40389 218.291 4.80056 218.291 5.33256V7.52356H217.465V7.06856C217.358 7.23189 217.204 7.35789 217.003 7.44656C216.807 7.53056 216.569 7.57256 216.289 7.57256C216.009 7.57256 215.764 7.52589 215.554 7.43256C215.344 7.33456 215.181 7.20156 215.064 7.03356C214.952 6.86089 214.896 6.66723 214.896 6.45256C214.896 6.11656 215.02 5.84823 215.267 5.64756C215.519 5.44223 215.913 5.33956 216.45 5.33956H217.416V5.28356C217.416 5.02223 217.337 4.82156 217.178 4.68156C217.024 4.54156 216.793 4.47156 216.485 4.47156C216.275 4.47156 216.067 4.50423 215.862 4.56956C215.661 4.63489 215.491 4.72589 215.351 4.84256L215.008 4.20556C215.204 4.05623 215.44 3.94189 215.715 3.86256C215.99 3.78323 216.282 3.74356 216.59 3.74356ZM216.471 6.93556C216.69 6.93556 216.884 6.88656 217.052 6.78856C217.225 6.68589 217.346 6.54123 217.416 6.35456V5.92056H216.513C216.009 5.92056 215.757 6.08623 215.757 6.41756C215.757 6.57623 215.82 6.70223 215.946 6.79556C216.072 6.88889 216.247 6.93556 216.471 6.93556ZM222.974 7.57256C222.596 7.57256 222.256 7.49089 221.952 7.32756C221.649 7.16423 221.411 6.93789 221.238 6.64856C221.07 6.35456 220.986 6.02323 220.986 5.65456C220.986 5.28589 221.07 4.95689 221.238 4.66756C221.411 4.37823 221.649 4.15189 221.952 3.98856C222.256 3.82523 222.596 3.74356 222.974 3.74356C223.357 3.74356 223.7 3.82523 224.003 3.98856C224.307 4.15189 224.542 4.37823 224.71 4.66756C224.883 4.95689 224.969 5.28589 224.969 5.65456C224.969 6.02323 224.883 6.35456 224.71 6.64856C224.542 6.93789 224.307 7.16423 224.003 7.32756C223.7 7.49089 223.357 7.57256 222.974 7.57256ZM222.974 6.82356C223.296 6.82356 223.562 6.71623 223.772 6.50156C223.982 6.28689 224.087 6.00456 224.087 5.65456C224.087 5.30456 223.982 5.02223 223.772 4.80756C223.562 4.59289 223.296 4.48556 222.974 4.48556C222.652 4.48556 222.386 4.59289 222.176 4.80756C221.971 5.02223 221.868 5.30456 221.868 5.65456C221.868 6.00456 221.971 6.28689 222.176 6.50156C222.386 6.71623 222.652 6.82356 222.974 6.82356ZM228.658 4.52756H227.349V7.52356H226.474V4.52756H225.158V3.78556H228.658V4.52756ZM194.806 9.78556L193.056 13.8246C192.893 14.2306 192.694 14.5152 192.461 14.6786C192.228 14.8466 191.945 14.9306 191.614 14.9306C191.427 14.9306 191.243 14.9002 191.061 14.8396C190.879 14.7789 190.73 14.6949 190.613 14.5876L190.963 13.9436C191.047 14.0229 191.145 14.0859 191.257 14.1326C191.374 14.1792 191.49 14.2026 191.607 14.2026C191.761 14.2026 191.887 14.1629 191.985 14.0836C192.088 14.0042 192.181 13.8712 192.265 13.6846L192.328 13.5376L190.697 9.78556H191.607L192.783 12.5506L193.966 9.78556H194.806ZM199.171 12.7816V14.3566H198.352V13.5236H195.468V14.3566H194.656V12.7816H194.831C195.069 12.7722 195.23 12.6206 195.314 12.3266C195.403 12.0279 195.461 11.6079 195.489 11.0666L195.538 9.78556H198.618V12.7816H199.171ZM196.287 11.1296C196.269 11.5589 196.234 11.9089 196.182 12.1796C196.131 12.4502 196.038 12.6509 195.902 12.7816H197.743V10.5276H196.308L196.287 11.1296ZM201.346 9.74356C201.896 9.74356 202.316 9.87656 202.606 10.1426C202.9 10.4039 203.047 10.8006 203.047 11.3326V13.5236H202.221V13.0686C202.113 13.2319 201.959 13.3579 201.759 13.4466C201.563 13.5306 201.325 13.5726 201.045 13.5726C200.765 13.5726 200.52 13.5259 200.31 13.4326C200.1 13.3346 199.936 13.2016 199.82 13.0336C199.708 12.8609 199.652 12.6672 199.652 12.4526C199.652 12.1166 199.775 11.8482 200.023 11.6476C200.275 11.4422 200.669 11.3396 201.206 11.3396H202.172V11.2836C202.172 11.0222 202.092 10.8216 201.934 10.6816C201.78 10.5416 201.549 10.4716 201.241 10.4716C201.031 10.4716 200.823 10.5042 200.618 10.5696C200.417 10.6349 200.247 10.7259 200.107 10.8426L199.764 10.2056C199.96 10.0562 200.195 9.94189 200.471 9.86256C200.746 9.78323 201.038 9.74356 201.346 9.74356ZM201.227 12.9356C201.446 12.9356 201.64 12.8866 201.808 12.7886C201.98 12.6859 202.102 12.5412 202.172 12.3546V11.9206H201.269C200.765 11.9206 200.513 12.0862 200.513 12.4176C200.513 12.5762 200.576 12.7022 200.702 12.7956C200.828 12.8889 201.003 12.9356 201.227 12.9356ZM206.202 9.74356C206.566 9.74356 206.89 9.82289 207.175 9.98156C207.464 10.1402 207.69 10.3642 207.854 10.6536C208.017 10.9429 208.099 11.2766 208.099 11.6546C208.099 12.0326 208.017 12.3686 207.854 12.6626C207.69 12.9519 207.464 13.1759 207.175 13.3346C206.89 13.4932 206.566 13.5726 206.202 13.5726C205.698 13.5726 205.299 13.4046 205.005 13.0686V14.8816H204.13V9.78556H204.963V10.2756C205.107 10.0982 205.285 9.96523 205.495 9.87656C205.709 9.78789 205.945 9.74356 206.202 9.74356ZM206.104 12.8236C206.426 12.8236 206.689 12.7162 206.895 12.5016C207.105 12.2869 207.21 12.0046 207.21 11.6546C207.21 11.3046 207.105 11.0222 206.895 10.8076C206.689 10.5929 206.426 10.4856 206.104 10.4856C205.894 10.4856 205.705 10.5346 205.537 10.6326C205.369 10.7259 205.236 10.8612 205.138 11.0386C205.04 11.2159 204.991 11.4212 204.991 11.6546C204.991 11.8879 205.04 12.0932 205.138 12.2706C205.236 12.4479 205.369 12.5856 205.537 12.6836C205.705 12.7769 205.894 12.8236 206.104 12.8236ZM210.314 9.74356C210.865 9.74356 211.285 9.87656 211.574 10.1426C211.868 10.4039 212.015 10.8006 212.015 11.3326V13.5236H211.189V13.0686C211.082 13.2319 210.928 13.3579 210.727 13.4466C210.531 13.5306 210.293 13.5726 210.013 13.5726C209.733 13.5726 209.488 13.5259 209.278 13.4326C209.068 13.3346 208.905 13.2016 208.788 13.0336C208.676 12.8609 208.62 12.6672 208.62 12.4526C208.62 12.1166 208.744 11.8482 208.991 11.6476C209.243 11.4422 209.638 11.3396 210.174 11.3396H211.14V11.2836C211.14 11.0222 211.061 10.8216 210.902 10.6816C210.748 10.5416 210.517 10.4716 210.209 10.4716C209.999 10.4716 209.792 10.5042 209.586 10.5696C209.386 10.6349 209.215 10.7259 209.075 10.8426L208.732 10.2056C208.928 10.0562 209.164 9.94189 209.439 9.86256C209.715 9.78323 210.006 9.74356 210.314 9.74356ZM210.195 12.9356C210.415 12.9356 210.608 12.8866 210.776 12.7886C210.949 12.6859 211.07 12.5412 211.14 12.3546V11.9206H210.237C209.733 11.9206 209.481 12.0862 209.481 12.4176C209.481 12.5762 209.544 12.7022 209.67 12.7956C209.796 12.8889 209.971 12.9356 210.195 12.9356ZM216.734 13.5726C216.346 13.5726 215.999 13.4909 215.691 13.3276C215.383 13.1642 215.142 12.9379 214.97 12.6486C214.797 12.3546 214.711 12.0232 214.711 11.6546C214.711 11.2859 214.797 10.9569 214.97 10.6676C215.142 10.3782 215.38 10.1519 215.684 9.98856C215.992 9.82523 216.342 9.74356 216.734 9.74356C217.102 9.74356 217.424 9.81823 217.7 9.96756C217.98 10.1169 218.19 10.3316 218.33 10.6116L217.658 11.0036C217.55 10.8309 217.415 10.7026 217.252 10.6186C217.093 10.5299 216.918 10.4856 216.727 10.4856C216.4 10.4856 216.129 10.5929 215.915 10.8076C215.7 11.0176 215.593 11.2999 215.593 11.6546C215.593 12.0092 215.698 12.2939 215.908 12.5086C216.122 12.7186 216.395 12.8236 216.727 12.8236C216.918 12.8236 217.093 12.7816 217.252 12.6976C217.415 12.6089 217.55 12.4782 217.658 12.3056L218.33 12.6976C218.185 12.9776 217.973 13.1946 217.693 13.3486C217.417 13.4979 217.098 13.5726 216.734 13.5726ZM221.089 9.96756C221.444 9.96756 221.756 10.0446 222.027 10.1986C222.298 10.3479 222.508 10.5579 222.657 10.8286C222.811 11.0992 222.888 11.4096 222.888 11.7596C222.888 12.1189 222.804 12.4386 222.636 12.7186C222.468 12.9939 222.232 13.2086 221.929 13.3626C221.626 13.5166 221.28 13.5936 220.893 13.5936C220.244 13.5936 219.743 13.3789 219.388 12.9496C219.033 12.5202 218.856 11.9019 218.856 11.0946C218.856 10.3432 219.017 9.74823 219.339 9.30956C219.661 8.87089 220.153 8.58156 220.816 8.44156L222.552 8.07056L222.678 8.85456L221.103 9.17656C220.65 9.26989 220.312 9.42856 220.088 9.65256C219.864 9.87656 219.733 10.1916 219.696 10.5976C219.864 10.3969 220.067 10.2429 220.305 10.1356C220.543 10.0236 220.804 9.96756 221.089 9.96756ZM220.914 12.8866C221.236 12.8866 221.495 12.7839 221.691 12.5786C221.892 12.3686 221.992 12.1026 221.992 11.7806C221.992 11.4586 221.892 11.1996 221.691 11.0036C221.495 10.8076 221.236 10.7096 220.914 10.7096C220.587 10.7096 220.324 10.8076 220.123 11.0036C219.922 11.1996 219.822 11.4586 219.822 11.7806C219.822 12.1072 219.922 12.3732 220.123 12.5786C220.328 12.7839 220.592 12.8866 220.914 12.8866ZM225.401 13.5726C225.023 13.5726 224.682 13.4909 224.379 13.3276C224.076 13.1642 223.838 12.9379 223.665 12.6486C223.497 12.3546 223.413 12.0232 223.413 11.6546C223.413 11.2859 223.497 10.9569 223.665 10.6676C223.838 10.3782 224.076 10.1519 224.379 9.98856C224.682 9.82523 225.023 9.74356 225.401 9.74356C225.784 9.74356 226.127 9.82523 226.43 9.98856C226.733 10.1519 226.969 10.3782 227.137 10.6676C227.31 10.9569 227.396 11.2859 227.396 11.6546C227.396 12.0232 227.31 12.3546 227.137 12.6486C226.969 12.9379 226.733 13.1642 226.43 13.3276C226.127 13.4909 225.784 13.5726 225.401 13.5726ZM225.401 12.8236C225.723 12.8236 225.989 12.7162 226.199 12.5016C226.409 12.2869 226.514 12.0046 226.514 11.6546C226.514 11.3046 226.409 11.0222 226.199 10.8076C225.989 10.5929 225.723 10.4856 225.401 10.4856C225.079 10.4856 224.813 10.5929 224.603 10.8076C224.398 11.0222 224.295 11.3046 224.295 11.6546C224.295 12.0046 224.398 12.2869 224.603 12.5016C224.813 12.7162 225.079 12.8236 225.401 12.8236ZM229.814 12.0256H229.135V13.5236H228.26V9.78556H229.135V11.2976H229.835L230.941 9.78556H231.879L230.521 11.5846L231.97 13.5236H230.941L229.814 12.0256ZM235.904 9.78556L234.154 13.8246C233.99 14.2306 233.792 14.5152 233.559 14.6786C233.325 14.8466 233.043 14.9306 232.712 14.9306C232.525 14.9306 232.341 14.9002 232.159 14.8396C231.977 14.7789 231.827 14.6949 231.711 14.5876L232.061 13.9436C232.145 14.0229 232.243 14.0859 232.355 14.1326C232.471 14.1792 232.588 14.2026 232.705 14.2026C232.859 14.2026 232.985 14.1629 233.083 14.0836C233.185 14.0042 233.279 13.8712 233.363 13.6846L233.426 13.5376L231.795 9.78556H232.705L233.881 12.5506L235.064 9.78556H235.904Z" fill="black"/>
<rect x="186.896" y="2.24817" width="1.37971" height="42.0794" fill="#E51937"/>
<path d="M189.5 45.3621C189.5 46.4194 188.643 47.2765 187.585 47.2765C186.528 47.2765 185.671 46.4194 185.671 45.3621C185.671 44.3049 186.528 43.4478 187.585 43.4478C188.643 43.4478 189.5 44.3049 189.5 45.3621Z" fill="white" stroke="#E51937"/>
<path d="M215.193 182.05L215.186 178.802L213.576 181.49H213.17L211.56 178.844V182.05H210.699V177.15H211.448L213.387 180.391L215.305 177.15H216.047L216.061 182.05H215.193ZM217.334 178.312H218.209V180.776L220.274 178.312H221.072V182.05H220.197V179.586L218.139 182.05H217.334V178.312ZM222.249 178.312H223.124V179.831H225.007V178.312H225.882V182.05H225.007V180.573H223.124V182.05H222.249V178.312ZM227.055 178.312H227.93V180.776L229.995 178.312H230.793V182.05H229.918V179.586L227.86 182.05H227.055V178.312ZM235.645 182.05V179.572L234.385 181.658H234.007L232.768 179.565V182.05H231.97V178.312H232.887L234.217 180.65L235.61 178.312H236.429L236.436 182.05H235.645ZM239.002 178.27C239.553 178.27 239.973 178.403 240.262 178.669C240.556 178.93 240.703 179.327 240.703 179.859V182.05H239.877V181.595C239.77 181.758 239.616 181.884 239.415 181.973C239.219 182.057 238.981 182.099 238.701 182.099C238.421 182.099 238.176 182.052 237.966 181.959C237.756 181.861 237.593 181.728 237.476 181.56C237.364 181.387 237.308 181.193 237.308 180.979C237.308 180.643 237.432 180.374 237.679 180.174C237.931 179.968 238.326 179.866 238.862 179.866H239.828V179.81C239.828 179.548 239.749 179.348 239.59 179.208C239.436 179.068 239.205 178.998 238.897 178.998C238.687 178.998 238.48 179.03 238.274 179.096C238.074 179.161 237.903 179.252 237.763 179.369L237.42 178.732C237.616 178.582 237.852 178.468 238.127 178.389C238.403 178.309 238.694 178.27 239.002 178.27ZM238.883 181.462C239.103 181.462 239.296 181.413 239.464 181.315C239.637 181.212 239.758 181.067 239.828 180.881V180.447H238.925C238.421 180.447 238.169 180.612 238.169 180.944C238.169 181.102 238.232 181.228 238.358 181.322C238.484 181.415 238.659 181.462 238.883 181.462ZM245.174 178.312V182.05H244.299V179.054H242.899L242.864 179.796C242.841 180.29 242.794 180.706 242.724 181.042C242.659 181.373 242.545 181.637 242.381 181.833C242.223 182.024 242.003 182.12 241.723 182.12C241.593 182.12 241.432 182.094 241.24 182.043L241.282 181.308C241.348 181.322 241.404 181.329 241.45 181.329C241.628 181.329 241.761 181.259 241.849 181.119C241.938 180.974 241.994 180.804 242.017 180.608C242.045 180.407 242.069 180.122 242.087 179.754L242.15 178.312H245.174ZM248.229 179.544C248.705 179.544 249.069 179.651 249.321 179.866C249.577 180.08 249.706 180.384 249.706 180.776C249.706 181.186 249.566 181.504 249.286 181.728C249.006 181.952 248.611 182.061 248.103 182.057L246.353 182.05V178.312H247.228V179.537L248.229 179.544ZM248.026 181.413C248.282 181.417 248.478 181.364 248.614 181.252C248.749 181.14 248.817 180.976 248.817 180.762C248.817 180.552 248.751 180.398 248.621 180.3C248.49 180.202 248.292 180.15 248.026 180.146L247.228 180.139V181.406L248.026 181.413ZM250.475 178.312H251.35V179.831H253.233V178.312H254.108V182.05H253.233V180.573H251.35V182.05H250.475V178.312ZM257.1 179.544C257.576 179.544 257.94 179.651 258.192 179.866C258.444 180.08 258.57 180.384 258.57 180.776C258.57 181.186 258.43 181.504 258.15 181.728C257.875 181.952 257.483 182.061 256.974 182.057L255.28 182.05V178.312H256.155V179.537L257.1 179.544ZM259.053 178.312H259.928V182.05H259.053V178.312ZM256.897 181.413C257.154 181.417 257.35 181.364 257.485 181.252C257.621 181.14 257.688 180.976 257.688 180.762C257.688 180.552 257.623 180.398 257.492 180.3C257.362 180.202 257.163 180.15 256.897 180.146L256.155 180.139V181.406L256.897 181.413ZM261.105 178.312H261.98V180.776L264.045 178.312H264.843V182.05H263.968V179.586L261.91 182.05H261.105V178.312ZM262.918 177.871C262.54 177.871 262.25 177.784 262.05 177.612C261.854 177.434 261.753 177.178 261.749 176.842H262.33C262.334 177.01 262.386 177.143 262.484 177.241C262.586 177.339 262.729 177.388 262.911 177.388C263.088 177.388 263.228 177.339 263.331 177.241C263.438 177.143 263.494 177.01 263.499 176.842H264.094C264.089 177.178 263.986 177.434 263.786 177.612C263.585 177.784 263.296 177.871 262.918 177.871ZM270.026 178.27C270.39 178.27 270.715 178.349 270.999 178.508C271.289 178.666 271.515 178.89 271.678 179.18C271.842 179.469 271.923 179.803 271.923 180.181C271.923 180.559 271.842 180.895 271.678 181.189C271.515 181.478 271.289 181.702 270.999 181.861C270.715 182.019 270.39 182.099 270.026 182.099C269.522 182.099 269.123 181.931 268.829 181.595V183.408H267.954V178.312H268.787V178.802C268.932 178.624 269.109 178.491 269.319 178.403C269.534 178.314 269.77 178.27 270.026 178.27ZM269.928 181.35C270.25 181.35 270.514 181.242 270.719 181.028C270.929 180.813 271.034 180.531 271.034 180.181C271.034 179.831 270.929 179.548 270.719 179.334C270.514 179.119 270.25 179.012 269.928 179.012C269.718 179.012 269.529 179.061 269.361 179.159C269.193 179.252 269.06 179.387 268.962 179.565C268.864 179.742 268.815 179.947 268.815 180.181C268.815 180.414 268.864 180.619 268.962 180.797C269.06 180.974 269.193 181.112 269.361 181.21C269.529 181.303 269.718 181.35 269.928 181.35ZM272.794 178.312H273.669V180.776L275.734 178.312H276.532V182.05H275.657V179.586L273.599 182.05H272.794V178.312ZM279.41 182.099C279.023 182.099 278.675 182.017 278.367 181.854C278.059 181.69 277.819 181.464 277.646 181.175C277.473 180.881 277.387 180.549 277.387 180.181C277.387 179.812 277.473 179.483 277.646 179.194C277.819 178.904 278.057 178.678 278.36 178.515C278.668 178.351 279.018 178.27 279.41 178.27C279.779 178.27 280.101 178.344 280.376 178.494C280.656 178.643 280.866 178.858 281.006 179.138L280.334 179.53C280.227 179.357 280.091 179.229 279.928 179.145C279.769 179.056 279.594 179.012 279.403 179.012C279.076 179.012 278.806 179.119 278.591 179.334C278.376 179.544 278.269 179.826 278.269 180.181C278.269 180.535 278.374 180.82 278.584 181.035C278.799 181.245 279.072 181.35 279.403 181.35C279.594 181.35 279.769 181.308 279.928 181.224C280.091 181.135 280.227 181.004 280.334 180.832L281.006 181.224C280.861 181.504 280.649 181.721 280.369 181.875C280.094 182.024 279.774 182.099 279.41 182.099ZM283.33 180.552H282.651V182.05H281.776V178.312H282.651V179.824H283.351L284.457 178.312H285.395L284.037 180.111L285.486 182.05H284.457L283.33 180.552ZM214.178 184.312V188.05H213.31V185.054H211.469V188.05H210.594V184.312H214.178ZM218.859 186.202C218.859 186.262 218.854 186.349 218.845 186.461H215.912C215.963 186.736 216.096 186.955 216.311 187.119C216.53 187.277 216.801 187.357 217.123 187.357C217.533 187.357 217.872 187.221 218.138 186.951L218.607 187.49C218.439 187.69 218.226 187.842 217.97 187.945C217.713 188.047 217.424 188.099 217.102 188.099C216.691 188.099 216.329 188.017 216.017 187.854C215.704 187.69 215.461 187.464 215.289 187.175C215.121 186.881 215.037 186.549 215.037 186.181C215.037 185.817 215.118 185.49 215.282 185.201C215.45 184.907 215.681 184.678 215.975 184.515C216.269 184.351 216.6 184.27 216.969 184.27C217.333 184.27 217.657 184.351 217.942 184.515C218.231 184.673 218.455 184.9 218.614 185.194C218.777 185.483 218.859 185.819 218.859 186.202ZM216.969 184.97C216.689 184.97 216.451 185.054 216.255 185.222C216.063 185.385 215.947 185.604 215.905 185.88H218.026C217.988 185.609 217.874 185.39 217.683 185.222C217.491 185.054 217.253 184.97 216.969 184.97ZM221.888 184.27C222.252 184.27 222.576 184.349 222.861 184.508C223.15 184.666 223.376 184.89 223.54 185.18C223.703 185.469 223.785 185.803 223.785 186.181C223.785 186.559 223.703 186.895 223.54 187.189C223.376 187.478 223.15 187.702 222.861 187.861C222.576 188.019 222.252 188.099 221.888 188.099C221.384 188.099 220.985 187.931 220.691 187.595V189.408H219.816V184.312H220.649V184.802C220.793 184.624 220.971 184.491 221.181 184.403C221.395 184.314 221.631 184.27 221.888 184.27ZM221.79 187.35C222.112 187.35 222.375 187.242 222.581 187.028C222.791 186.813 222.896 186.531 222.896 186.181C222.896 185.831 222.791 185.548 222.581 185.334C222.375 185.119 222.112 185.012 221.79 185.012C221.58 185.012 221.391 185.061 221.223 185.159C221.055 185.252 220.922 185.387 220.824 185.565C220.726 185.742 220.677 185.947 220.677 186.181C220.677 186.414 220.726 186.619 220.824 186.797C220.922 186.974 221.055 187.112 221.223 187.21C221.391 187.303 221.58 187.35 221.79 187.35ZM228.155 186.202C228.155 186.262 228.151 186.349 228.141 186.461H225.208C225.26 186.736 225.393 186.955 225.607 187.119C225.827 187.277 226.097 187.357 226.419 187.357C226.83 187.357 227.168 187.221 227.434 186.951L227.903 187.49C227.735 187.69 227.523 187.842 227.266 187.945C227.01 188.047 226.72 188.099 226.398 188.099C225.988 188.099 225.626 188.017 225.313 187.854C225.001 187.69 224.758 187.464 224.585 187.175C224.417 186.881 224.333 186.549 224.333 186.181C224.333 185.817 224.415 185.49 224.578 185.201C224.746 184.907 224.977 184.678 225.271 184.515C225.565 184.351 225.897 184.27 226.265 184.27C226.629 184.27 226.954 184.351 227.238 184.515C227.528 184.673 227.752 184.9 227.91 185.194C228.074 185.483 228.155 185.819 228.155 186.202ZM226.265 184.97C225.985 184.97 225.747 185.054 225.551 185.222C225.36 185.385 225.243 185.604 225.201 185.88H227.322C227.285 185.609 227.171 185.39 226.979 185.222C226.788 185.054 226.55 184.97 226.265 184.97ZM231.821 186.104C232.283 186.244 232.514 186.542 232.514 187C232.514 187.336 232.388 187.595 232.136 187.777C231.884 187.959 231.511 188.05 231.016 188.05H229.112V184.312H230.939C231.397 184.312 231.754 184.396 232.01 184.564C232.267 184.732 232.395 184.97 232.395 185.278C232.395 185.469 232.344 185.635 232.241 185.775C232.143 185.915 232.003 186.024 231.821 186.104ZM229.945 185.873H230.862C231.315 185.873 231.541 185.716 231.541 185.404C231.541 185.1 231.315 184.949 230.862 184.949H229.945V185.873ZM230.946 187.413C231.427 187.413 231.667 187.256 231.667 186.944C231.667 186.78 231.611 186.659 231.499 186.58C231.387 186.496 231.212 186.454 230.974 186.454H229.945V187.413H230.946ZM236.946 186.202C236.946 186.262 236.942 186.349 236.932 186.461H233.999C234.051 186.736 234.184 186.955 234.398 187.119C234.618 187.277 234.888 187.357 235.21 187.357C235.621 187.357 235.959 187.221 236.225 186.951L236.694 187.49C236.526 187.69 236.314 187.842 236.057 187.945C235.801 188.047 235.511 188.099 235.189 188.099C234.779 188.099 234.417 188.017 234.104 187.854C233.792 187.69 233.549 187.464 233.376 187.175C233.208 186.881 233.124 186.549 233.124 186.181C233.124 185.817 233.206 185.49 233.369 185.201C233.537 184.907 233.768 184.678 234.062 184.515C234.356 184.351 234.688 184.27 235.056 184.27C235.42 184.27 235.745 184.351 236.029 184.515C236.319 184.673 236.543 184.9 236.701 185.194C236.865 185.483 236.946 185.819 236.946 186.202ZM235.056 184.97C234.776 184.97 234.538 185.054 234.342 185.222C234.151 185.385 234.034 185.604 233.992 185.88H236.113C236.076 185.609 235.962 185.39 235.77 185.222C235.579 185.054 235.341 184.97 235.056 184.97ZM239.975 184.27C240.339 184.27 240.664 184.349 240.948 184.508C241.238 184.666 241.464 184.89 241.627 185.18C241.791 185.469 241.872 185.803 241.872 186.181C241.872 186.559 241.791 186.895 241.627 187.189C241.464 187.478 241.238 187.702 240.948 187.861C240.664 188.019 240.339 188.099 239.975 188.099C239.471 188.099 239.072 187.931 238.778 187.595V189.408H237.903V184.312H238.736V184.802C238.881 184.624 239.058 184.491 239.268 184.403C239.483 184.314 239.719 184.27 239.975 184.27ZM239.877 187.35C240.199 187.35 240.463 187.242 240.668 187.028C240.878 186.813 240.983 186.531 240.983 186.181C240.983 185.831 240.878 185.548 240.668 185.334C240.463 185.119 240.199 185.012 239.877 185.012C239.667 185.012 239.478 185.061 239.31 185.159C239.142 185.252 239.009 185.387 238.911 185.565C238.813 185.742 238.764 185.947 238.764 186.181C238.764 186.414 238.813 186.619 238.911 186.797C239.009 186.974 239.142 187.112 239.31 187.21C239.478 187.303 239.667 187.35 239.877 187.35ZM242.743 184.312H243.618V185.831H245.501V184.312H246.376V188.05H245.501V186.573H243.618V188.05H242.743V184.312ZM251.077 184.312L249.327 188.351C249.164 188.757 248.965 189.041 248.732 189.205C248.499 189.373 248.216 189.457 247.885 189.457C247.698 189.457 247.514 189.426 247.332 189.366C247.15 189.305 247.001 189.221 246.884 189.114L247.234 188.47C247.318 188.549 247.416 188.612 247.528 188.659C247.645 188.705 247.761 188.729 247.878 188.729C248.032 188.729 248.158 188.689 248.256 188.61C248.359 188.53 248.452 188.397 248.536 188.211L248.599 188.064L246.968 184.312H247.878L249.054 187.077L250.237 184.312H251.077ZM254.673 185.054H253.364V188.05H252.489V185.054H251.173V184.312H254.673V185.054ZM257.184 185.544C257.66 185.544 258.024 185.651 258.276 185.866C258.532 186.08 258.661 186.384 258.661 186.776C258.661 187.186 258.521 187.504 258.241 187.728C257.961 187.952 257.566 188.061 257.058 188.057L255.308 188.05V184.312H256.183V185.537L257.184 185.544ZM256.981 187.413C257.237 187.417 257.433 187.364 257.569 187.252C257.704 187.14 257.772 186.976 257.772 186.762C257.772 186.552 257.706 186.398 257.576 186.3C257.445 186.202 257.247 186.15 256.981 186.146L256.183 186.139V187.406L256.981 187.413ZM261.131 188.099C260.743 188.099 260.396 188.017 260.088 187.854C259.78 187.69 259.539 187.464 259.367 187.175C259.194 186.881 259.108 186.549 259.108 186.181C259.108 185.812 259.194 185.483 259.367 185.194C259.539 184.904 259.777 184.678 260.081 184.515C260.389 184.351 260.739 184.27 261.131 184.27C261.499 184.27 261.821 184.344 262.097 184.494C262.377 184.643 262.587 184.858 262.727 185.138L262.055 185.53C261.947 185.357 261.812 185.229 261.649 185.145C261.49 185.056 261.315 185.012 261.124 185.012C260.797 185.012 260.526 185.119 260.312 185.334C260.097 185.544 259.99 185.826 259.99 186.181C259.99 186.535 260.095 186.82 260.305 187.035C260.519 187.245 260.792 187.35 261.124 187.35C261.315 187.35 261.49 187.308 261.649 187.224C261.812 187.135 261.947 187.004 262.055 186.832L262.727 187.224C262.582 187.504 262.37 187.721 262.09 187.875C261.814 188.024 261.495 188.099 261.131 188.099ZM266.552 184.312V188.05H265.768V186.923H264.781L264.018 188.05H263.08L263.962 186.804C263.691 186.71 263.483 186.568 263.339 186.377C263.199 186.181 263.129 185.94 263.129 185.656C263.129 185.226 263.28 184.895 263.584 184.662C263.887 184.428 264.305 184.312 264.837 184.312H266.552ZM264.865 185.047C264.3 185.047 264.018 185.259 264.018 185.684C264.018 186.104 264.291 186.314 264.837 186.314H265.768V185.047H264.865ZM272.372 186.104C272.834 186.244 273.065 186.542 273.065 187C273.065 187.336 272.939 187.595 272.687 187.777C272.435 187.959 272.062 188.05 271.567 188.05H269.663V184.312H271.49C271.948 184.312 272.305 184.396 272.561 184.564C272.818 184.732 272.946 184.97 272.946 185.278C272.946 185.469 272.895 185.635 272.792 185.775C272.694 185.915 272.554 186.024 272.372 186.104ZM270.496 185.873H271.413C271.866 185.873 272.092 185.716 272.092 185.404C272.092 185.1 271.866 184.949 271.413 184.949H270.496V185.873ZM271.497 187.413C271.978 187.413 272.218 187.256 272.218 186.944C272.218 186.78 272.162 186.659 272.05 186.58C271.938 186.496 271.763 186.454 271.525 186.454H270.496V187.413H271.497ZM211.987 190.27C212.538 190.27 212.958 190.403 213.247 190.669C213.541 190.93 213.688 191.327 213.688 191.859V194.05H212.862V193.595C212.755 193.758 212.601 193.884 212.4 193.973C212.204 194.057 211.966 194.099 211.686 194.099C211.406 194.099 211.161 194.052 210.951 193.959C210.741 193.861 210.578 193.728 210.461 193.56C210.349 193.387 210.293 193.193 210.293 192.979C210.293 192.643 210.417 192.374 210.664 192.174C210.916 191.968 211.31 191.866 211.847 191.866H212.813V191.81C212.813 191.548 212.734 191.348 212.575 191.208C212.421 191.068 212.19 190.998 211.882 190.998C211.672 190.998 211.464 191.03 211.259 191.096C211.058 191.161 210.888 191.252 210.748 191.369L210.405 190.732C210.601 190.582 210.837 190.468 211.112 190.389C211.387 190.309 211.679 190.27 211.987 190.27ZM211.868 193.462C212.087 193.462 212.281 193.413 212.449 193.315C212.622 193.212 212.743 193.067 212.813 192.881V192.447H211.91C211.406 192.447 211.154 192.612 211.154 192.944C211.154 193.102 211.217 193.228 211.343 193.322C211.469 193.415 211.644 193.462 211.868 193.462ZM217.48 192.104C217.942 192.244 218.173 192.542 218.173 193C218.173 193.336 218.047 193.595 217.795 193.777C217.543 193.959 217.169 194.05 216.675 194.05H214.771V190.312H216.598C217.055 190.312 217.412 190.396 217.669 190.564C217.925 190.732 218.054 190.97 218.054 191.278C218.054 191.469 218.002 191.635 217.9 191.775C217.802 191.915 217.662 192.024 217.48 192.104ZM215.604 191.873H216.521C216.973 191.873 217.2 191.716 217.2 191.404C217.2 191.1 216.973 190.949 216.521 190.949H215.604V191.873ZM216.605 193.413C217.085 193.413 217.326 193.256 217.326 192.944C217.326 192.78 217.27 192.659 217.158 192.58C217.046 192.496 216.871 192.454 216.633 192.454H215.604V193.413H216.605ZM220.498 190.27C221.048 190.27 221.468 190.403 221.758 190.669C222.052 190.93 222.199 191.327 222.199 191.859V194.05H221.373V193.595C221.265 193.758 221.111 193.884 220.911 193.973C220.715 194.057 220.477 194.099 220.197 194.099C219.917 194.099 219.672 194.052 219.462 193.959C219.252 193.861 219.088 193.728 218.972 193.56C218.86 193.387 218.804 193.193 218.804 192.979C218.804 192.643 218.927 192.374 219.175 192.174C219.427 191.968 219.821 191.866 220.358 191.866H221.324V191.81C221.324 191.548 221.244 191.348 221.086 191.208C220.932 191.068 220.701 190.998 220.393 190.998C220.183 190.998 219.975 191.03 219.77 191.096C219.569 191.161 219.399 191.252 219.259 191.369L218.916 190.732C219.112 190.582 219.347 190.468 219.623 190.389C219.898 190.309 220.19 190.27 220.498 190.27ZM220.379 193.462C220.598 193.462 220.792 193.413 220.96 193.315C221.132 193.212 221.254 193.067 221.324 192.881V192.447H220.421C219.917 192.447 219.665 192.612 219.665 192.944C219.665 193.102 219.728 193.228 219.854 193.322C219.98 193.415 220.155 193.462 220.379 193.462ZM225.353 190.27C225.717 190.27 226.042 190.349 226.326 190.508C226.616 190.666 226.842 190.89 227.005 191.18C227.169 191.469 227.25 191.803 227.25 192.181C227.25 192.559 227.169 192.895 227.005 193.189C226.842 193.478 226.616 193.702 226.326 193.861C226.042 194.019 225.717 194.099 225.353 194.099C224.849 194.099 224.45 193.931 224.156 193.595V195.408H223.281V190.312H224.114V190.802C224.259 190.624 224.436 190.491 224.646 190.403C224.861 190.314 225.097 190.27 225.353 190.27ZM225.255 193.35C225.577 193.35 225.841 193.242 226.046 193.028C226.256 192.813 226.361 192.531 226.361 192.181C226.361 191.831 226.256 191.548 226.046 191.334C225.841 191.119 225.577 191.012 225.255 191.012C225.045 191.012 224.856 191.061 224.688 191.159C224.52 191.252 224.387 191.387 224.289 191.565C224.191 191.742 224.142 191.947 224.142 192.181C224.142 192.414 224.191 192.619 224.289 192.797C224.387 192.974 224.52 193.112 224.688 193.21C224.856 193.303 225.045 193.35 225.255 193.35ZM228.121 190.312H228.996V192.776L231.061 190.312H231.859V194.05H230.984V191.586L228.926 194.05H228.121V190.312ZM233.036 190.312H233.911V192.776L235.976 190.312H236.774V194.05H235.899V191.586L233.841 194.05H233.036V190.312Z" fill="black"/>
<rect x="207.246" y="185.742" width="1.37971" height="37.2506" transform="rotate(-180 207.246 185.742)" fill="#E51937"/>
<path d="M204.642 147.457C204.642 146.399 205.499 145.542 206.556 145.542C207.614 145.542 208.471 146.399 208.471 147.457C208.471 148.514 207.614 149.371 206.556 149.371C205.499 149.371 204.642 148.514 204.642 147.457Z" fill="white" stroke="#E51937"/>
</svg>
